<?xml version="1.0" encoding="UTF-8"?>
<svg id="Capa_1" data-name="Capa 1" xmlns="http://www.w3.org/2000/svg" viewBox="0 0 460 100">
  <defs>
    <style>
      .cls-1 {
        fill: #0d2ee0;
      }
    </style>
  </defs>
  <path class="cls-1" d="M120,7.07v85.86c0,3.91,3.17,7.07,7.07,7.07h1.26c1.1,0,2.18-.26,3.16-.75l35.34-17.67c1.99-1,4.33-1,6.32,0l35.34,17.67c.98.49,2.06.75,3.16.75h1.26c3.91,0,7.07-3.17,7.07-7.07V7.07C220,3.17,216.83,0,212.93,0h-85.86c-3.91,0-7.07,3.17-7.07,7.07Z"/>
  <path class="cls-1" d="M100,7.07v85.86c0,3.9-3.16,7.07-7.07,7.07-1.87,0-3.67-.75-5-2.07l-12.93-12.93c-2.76-2.76-7.24-2.76-10,0l-10,10c-2.76,2.76-7.24,2.76-10,0l-10-10c-2.76-2.76-7.24-2.76-10,0l-12.93,12.93c-1.32,1.32-3.12,2.07-5,2.07C3.17,100,0,96.83,0,92.93V7.07C0,3.17,3.17,0,7.07,0h1.26C9.43,0,10.51.25,11.49.75l35.35,17.67c1.99.99,4.33.99,6.32,0L88.51.75C89.49.25,90.57,0,91.67,0h1.26C96.84,0,100,3.17,100,7.07Z"/>
  <path class="cls-1" d="M367.07,0h85.86c3.9,0,7.07,3.16,7.07,7.07,0,1.87-.75,3.67-2.07,5l-12.93,12.93c-2.76,2.76-2.76,7.24,0,10l10,10c2.76,2.76,2.76,7.24,0,10l-10,10c-2.76,2.76-2.76,7.24,0,10l12.93,12.93c1.32,1.32,2.07,3.12,2.07,5,0,3.9-3.17,7.07-7.07,7.07h-85.86c-3.9,0-7.07-3.17-7.07-7.07v-1.26c0-1.1.25-2.18.75-3.16l17.67-35.35c.99-1.99.99-4.33,0-6.32l-17.67-35.35c-.5-.98-.75-2.06-.75-3.16v-1.26C360,3.16,363.17,0,367.07,0Z"/>
  <path class="cls-1" d="M332.93,0h-85.86c-3.91,0-7.07,3.17-7.07,7.07v1.26c0,1.1.26,2.18.75,3.16l17.67,35.34c1,1.99,1,4.33,0,6.32l-17.67,35.34c-.49.98-.75,2.06-.75,3.16v1.26c0,3.91,3.17,7.07,7.07,7.07h85.86c3.91,0,7.07-3.17,7.07-7.07V7.07C340,3.17,336.83,0,332.93,0Z"/>
</svg>